<svg xmlns="http://www.w3.org/2000/svg" viewBox="0 0 64 64" role="img" aria-label="Poop Toilet Quest favicon">
  <defs>
    <radialGradient id="bg" cx="50%" cy="45%" r="60%">
      <stop offset="0%" stop-color="#8ff3ff"/>
      <stop offset="100%" stop-color="#243bff"/>
    </radialGradient>
    <linearGradient id="poop" x1="0" x2="0" y1="0" y2="1">
      <stop offset="0%" stop-color="#9a5a2e"/>
      <stop offset="100%" stop-color="#5a2f16"/>
    </linearGradient>
    <filter id="shadow" x="-20%" y="-20%" width="140%" height="140%">
      <feDropShadow dx="0" dy="2" stdDeviation="1.5" flood-color="#000" flood-opacity="0.35"/>
    </filter>
  </defs>

  <rect width="64" height="64" rx="14" fill="url(#bg)"/>
  <path d="M6 43 C15 33, 25 35, 32 43 S50 54, 58 41" fill="none" stroke="#ffffff" stroke-width="3" stroke-linecap="round" opacity="0.8"/>

  <!-- heroic poop -->
  <g filter="url(#shadow)">
    <path d="M28 14c1-5 7-5 8 0 1 4-3 6-7 7 5 1 9 4 9 8 0 2-1 4-3 5 5 1 8 5 8 10 0 8-7 12-17 12S9 52 9 44c0-5 3-9 8-10-2-1-3-3-3-5 0-4 4-7 9-8-3-1-5-3-5-6 0-3 3-5 10-1z" fill="url(#poop)"/>
    <circle cx="22" cy="38" r="3" fill="#fff"/>
    <circle cx="33" cy="38" r="3" fill="#fff"/>
    <circle cx="23" cy="38" r="1.2" fill="#111"/>
    <circle cx="34" cy="38" r="1.2" fill="#111"/>
    <path d="M23 47c4 3 9 3 13-1" fill="none" stroke="#fff" stroke-width="2.5" stroke-linecap="round"/>
  </g>

  <!-- magic blast -->
  <path d="M38 35 C43 31, 47 29, 52 26" stroke="#ffe95e" stroke-width="5" stroke-linecap="round"/>
  <path d="M39 39 C45 38, 50 37, 56 34" stroke="#ffffff" stroke-width="2" stroke-linecap="round" opacity="0.9"/>
  <polygon points="50,21 54,25 59,24 56,29 59,34 53,33 50,38 48,32 42,31 47,27" fill="#fff06a"/>

  <!-- bacteria boss -->
  <g filter="url(#shadow)">
    <circle cx="53" cy="28" r="8" fill="#50d66e"/>
    <circle cx="50" cy="26" r="1.3" fill="#123b18"/>
    <circle cx="56" cy="29" r="1.3" fill="#123b18"/>
    <path d="M49 33c3-2 6-2 9 0" fill="none" stroke="#123b18" stroke-width="1.8" stroke-linecap="round"/>
    <g stroke="#50d66e" stroke-width="2" stroke-linecap="round">
      <path d="M53 17v-5"/><path d="M53 39v5"/><path d="M42 28h-5"/><path d="M64 28h-5"/>
      <path d="M45 20l-3-3"/><path d="M61 36l3 3"/><path d="M61 20l3-3"/><path d="M45 36l-3 3"/>
    </g>
  </g>
</svg>
